<svg xmlns="http://www.w3.org/2000/svg" width="512" height="512" viewBox="0 0 512 512" version="1.1">
	<path d="M 243 19.050 C 225.355 21.229, 203.789 28.636, 188.798 37.667 C 147.064 62.810, 120.168 112.309, 123.647 157.570 L 124.278 165.777 118.711 167.396 C 109.286 170.136, 104 178.284, 104 190.072 C 104 197.455, 110.197 211, 113.576 211 C 118.936 211, 119.049 210.194, 114.667 203.200 C 110.804 197.035, 110.500 196.037, 110.500 189.525 C 110.500 181.213, 113.006 176.174, 118.417 173.606 C 123.919 170.996, 124.642 171.415, 127.036 178.610 C 128.246 182.245, 131.433 190.652, 134.118 197.292 C 136.803 203.932, 139 209.748, 139 210.217 C 139 211.445, 135.958 209.645, 128.522 204.017 C 124.935 201.302, 122 199.350, 122 199.679 C 122 200.009, 123.350 202.473, 125 205.154 C 126.650 207.836, 128 210.465, 128 210.996 C 128 214.020, 111.574 213.300, 102.342 209.871 C 99.129 208.678, 94.129 206.194, 91.231 204.351 C 88.332 202.508, 85.745 201, 85.481 201 C 84.207 201, 85.360 204.487, 89.112 211.984 C 96.109 225.964, 108.069 236.746, 121.250 240.957 L 125 242.155 125 252.472 C 125 264.853, 127.136 272.807, 132.827 281.611 C 145.916 301.863, 167.958 312.468, 192.156 310.155 L 199.812 309.423 199.288 314.495 C 198.829 318.944, 199.092 319.956, 201.428 322.732 L 204.091 325.896 201.533 329.949 C 195.522 339.469, 190 355.358, 190 363.130 L 190 368.049 179.937 377.707 C 174.403 383.019, 169.417 388.220, 168.858 389.265 C 166.840 393.037, 175.458 402.307, 187.061 408.844 C 194.332 412.941, 203.350 416, 208.157 416 C 210.270 416, 212 416.488, 212 417.084 C 212 421.194, 203.650 464.665, 201.932 469.500 C 198.041 480.448, 200.759 489.021, 209.237 492.544 C 215.291 495.060, 230.372 495.707, 235.268 493.661 C 241.288 491.146, 241.803 488.717, 239.122 475.466 C 236.316 461.596, 236.751 458.654, 244.522 439 C 247.457 431.575, 250.151 424.316, 250.508 422.868 C 251.021 420.790, 251.930 420.108, 254.829 419.629 C 256.848 419.295, 259.249 419.017, 260.165 419.011 C 262.064 418.998, 280.937 449.779, 284.256 458.301 C 285.676 461.948, 286.375 466.455, 286.596 473.400 C 286.976 485.280, 289.944 492.906, 295.004 495.002 C 302.969 498.301, 317.179 490.895, 322.382 480.733 C 325.093 475.437, 325.193 474.820, 324.066 470.302 C 323.407 467.661, 321.663 463.475, 320.191 461 C 318.719 458.525, 315.867 451.775, 313.853 446 C 311.840 440.225, 308.799 431.755, 307.096 427.178 C 305.393 422.600, 304 418.295, 304 417.610 C 304 416.925, 306.587 415.552, 309.750 414.559 C 323.936 410.102, 346 396.559, 346 392.308 C 346 391.739, 340.530 385.981, 333.843 379.512 L 321.687 367.751 324.768 366.456 C 326.463 365.743, 328.615 363.991, 329.552 362.561 C 331.174 360.085, 331.150 359.670, 329.026 353.731 C 327.801 350.304, 323.664 341.520, 319.834 334.211 C 313.228 321.604, 312.929 320.746, 314.008 317.477 C 314.633 315.582, 314.877 313.187, 314.549 312.154 C 313.995 310.410, 314.793 310.236, 325.726 309.707 C 338.816 309.075, 343.690 307.818, 354.280 302.348 C 364.121 297.264, 377.250 284.119, 381.812 274.781 C 386.021 266.166, 388.359 255.243, 387.556 247.943 L 386.944 242.386 394.636 239.006 C 407.070 233.541, 419.261 220.704, 425.576 206.425 C 426.895 203.441, 427.751 201, 427.478 201 C 427.205 201, 423.273 203.003, 418.740 205.451 C 414.208 207.899, 407.818 210.599, 404.540 211.451 C 397.672 213.236, 384.444 213.528, 383.449 211.917 C 383.081 211.322, 384.104 208.959, 385.722 206.667 C 387.341 204.375, 389.035 201.868, 389.487 201.095 C 390.484 199.392, 389.868 199.740, 381.176 205.785 C 377.697 208.205, 374.722 210.030, 374.563 209.842 C 374.405 209.654, 376.915 203.425, 380.141 196 C 383.367 188.575, 386.762 180.137, 387.686 177.250 C 389.704 170.941, 392.179 170.333, 396.845 174.999 C 400.800 178.954, 402.320 183.899, 401.798 191.114 C 401.441 196.048, 400.676 198.023, 397.129 203.163 C 393.899 207.844, 393.198 209.509, 394.193 210.140 C 396.781 211.782, 399.872 210.988, 401.880 208.168 C 408.086 199.453, 410.003 186.316, 406.292 177.927 C 404.025 172.803, 398.400 167.466, 394.324 166.573 L 391.500 165.954 391.826 152.559 C 392.053 143.223, 391.664 136.559, 390.540 130.562 C 382.681 88.621, 353.174 49.585, 315.717 31.573 C 294.540 21.390, 265.106 16.321, 243 19.050 M 277.923 40.923 C 274.946 43.900, 274.293 47.382, 275.941 51.500 C 277.898 56.392, 268.418 67.038, 257.594 72.103 C 253.808 73.875, 247.802 75.562, 242.414 76.368 L 233.500 77.701 239.254 78.466 C 242.419 78.887, 250.969 79.049, 258.254 78.826 C 270.110 78.463, 272.125 78.132, 277.458 75.670 C 285.472 71.971, 289.463 68.772, 292.474 63.635 C 297.430 55.178, 296.752 45.493, 290.857 40.533 C 286.620 36.968, 281.730 37.116, 277.923 40.923 M 317.750 75.080 C 315.350 76.478, 315.520 77.588, 319.191 84.500 C 320.944 87.800, 324.906 97.535, 327.996 106.134 C 331.087 114.733, 335.136 124.278, 336.996 127.346 C 340.275 132.757, 356.303 149.618, 354.159 145.401 C 353.572 144.247, 350.138 134.654, 346.529 124.085 C 342.920 113.516, 338.842 102.648, 337.467 99.934 C 336.091 97.220, 335.330 95, 335.775 95 C 336.775 95, 344.113 102.612, 346.352 105.973 C 348.509 109.209, 348.436 107.581, 346.123 100.858 C 341.864 88.479, 335.955 80.651, 327.801 76.588 C 322.163 73.779, 320.431 73.519, 317.750 75.080 M 187.831 83.917 C 181.810 89.217, 176.678 99.239, 173.454 111.991 C 169.116 129.150, 163.764 142.518, 158.337 149.750 C 154.759 154.518, 156.592 153.723, 164.737 146.972 C 173.940 139.345, 179.307 132.572, 184.127 122.500 C 188.152 114.088, 196.315 86.201, 195.801 82.616 C 195.314 79.223, 192.674 79.654, 187.831 83.917 M 254.733 95 C 254.434 95.825, 253.214 101.675, 252.022 108 C 247.561 131.669, 238.895 152.010, 228.857 162.369 C 223.397 168.004, 223.016 168.212, 219.335 167.573 C 206.991 165.430, 207.982 165.160, 201.612 172.415 C 198.432 176.037, 195.024 179, 194.038 179 C 190.802 179, 189.687 176.383, 190.256 170.117 L 190.786 164.270 182.143 169.686 C 177.389 172.664, 172.879 175.716, 172.120 176.466 C 169.774 178.787, 171.581 182.292, 176.713 185.377 L 181.500 188.255 185.004 186.239 C 194.550 180.748, 206.438 179.587, 214.500 183.359 C 219.720 185.801, 226 191.012, 226 192.901 C 226 194.467, 224.953 194.269, 221.226 191.996 C 219.425 190.898, 217.806 190, 217.629 190 C 217.451 190, 218.388 192.187, 219.711 194.859 C 226.503 208.583, 221.707 230.053, 210.737 235.033 C 205.283 237.508, 201.878 237.489, 196.909 234.953 C 192.573 232.742, 187.656 226.022, 185.993 220.035 C 184.731 215.491, 184.720 204.464, 185.973 200.095 L 186.946 196.702 184.506 198.995 C 180.672 202.596, 178.674 210.026, 179.227 218.629 C 179.785 227.331, 178.749 227.994, 174.788 221.468 C 172.926 218.399, 171.402 217, 169.922 217 C 167.262 217, 160.121 211.802, 153.538 205.072 C 147.807 199.214, 146.253 198.639, 148.611 203.250 C 151.156 208.225, 155.541 213.642, 164.999 223.500 C 169.766 228.469, 174.188 234.068, 174.871 236 C 179.854 250.101, 185.159 255.841, 198.061 261.092 C 211.253 266.460, 245.878 273.987, 257.428 273.996 C 263.350 274.001, 287.557 269.150, 302.378 264.988 C 324.431 258.796, 331.418 253.826, 336.930 240.410 C 339.739 233.576, 341.443 231.208, 349.461 223 C 358.911 213.326, 367 203.582, 367 201.874 C 367 201.353, 364.231 203.231, 360.847 206.047 C 352.866 212.690, 348.298 215.531, 343.092 217.090 C 340.293 217.929, 338.405 219.249, 337.499 221.001 C 336.747 222.456, 335.523 224.151, 334.778 224.769 C 333.655 225.702, 333.430 224.240, 333.462 216.197 C 333.496 207.455, 333.223 205.973, 330.683 201.151 C 329.133 198.208, 327.687 195.979, 327.469 196.197 C 327.252 196.415, 327.765 198.822, 328.611 201.547 C 330.830 208.698, 329.945 217.771, 326.342 224.817 C 318.928 239.313, 299.930 240.583, 293.023 227.044 C 288.954 219.069, 288.430 203.739, 291.917 194.682 C 293.060 191.715, 292.793 191.661, 287.250 193.744 C 284.342 194.837, 286.346 190.866, 290.584 187.135 C 296.812 181.653, 300.500 180.607, 311.165 181.298 C 319.849 181.860, 320.038 181.823, 324.625 178.662 C 327.184 176.899, 330.379 174.028, 331.725 172.282 L 334.172 169.109 326.063 165.032 C 320.334 162.151, 317.829 161.328, 317.527 162.227 C 317.291 162.927, 316.590 165.525, 315.968 168 C 314.395 174.259, 312.424 177, 309.496 177 C 307.739 177, 306.917 176.358, 306.615 174.750 C 304.771 164.937, 304.570 164.508, 301.679 164.177 C 300.128 163.999, 297.541 164.313, 295.929 164.875 C 293.583 165.693, 293 165.612, 293 164.471 C 293 162.771, 296.433 160.398, 300.250 159.459 C 301.762 159.087, 303 158.586, 303 158.346 C 303 157.743, 295.806 132.560, 295.545 132.251 C 295.430 132.114, 294.603 136.463, 293.708 141.916 C 291.576 154.905, 286.447 168.622, 282.679 171.411 C 280.184 173.258, 278.176 173.540, 265.325 173.846 C 256.647 174.053, 250.396 173.796, 249.809 173.209 C 249.165 172.565, 250.223 171.441, 252.877 169.949 C 255.105 168.697, 257.584 166.284, 258.386 164.586 C 260.070 161.022, 262 145.274, 262 135.091 C 262 120.796, 256.461 90.237, 254.733 95 M 311.524 103.357 C 316.306 116.735, 318.200 127.504, 318.408 142.500 L 318.589 155.500 324.044 158.169 C 327.045 159.637, 330.746 161.150, 332.268 161.532 C 334.976 162.211, 335.012 162.163, 333.903 159.363 C 333.279 157.788, 330.624 150.200, 328.001 142.500 C 319.422 117.308, 310.085 94, 308.573 94 C 308.357 94, 309.685 98.211, 311.524 103.357 M 375.129 121.402 C 373.313 128.614, 373.702 136.999, 376.030 140.818 C 380.417 148.013, 384.082 141.695, 382.279 130.047 C 381.170 122.882, 379.254 117.893, 377.379 117.283 C 376.760 117.082, 375.753 118.926, 375.129 121.402 M 136.644 119.499 C 133.425 122.718, 131.802 134.892, 134.035 139.066 C 135.439 141.690, 139.515 141.531, 141.443 138.777 C 144.152 134.910, 142.922 121.840, 139.589 119.074 C 138.536 118.200, 137.843 118.300, 136.644 119.499 M 181.972 141.685 C 178.962 150.312, 176.361 157.850, 176.192 158.435 C 175.340 161.376, 183.270 146.777, 184.984 142.249 C 187.095 136.676, 189.122 126, 188.071 126 C 187.726 126, 184.981 133.058, 181.972 141.685 M 357.500 149.861 C 357.500 172.147, 358.015 173.635, 361.537 161.521 C 363.754 153.894, 363.168 138.340, 360.451 132.750 C 359.449 130.688, 358.375 129, 358.065 129 C 357.754 128.999, 357.500 138.387, 357.500 149.861 M 334.046 176.942 C 332.329 179.110, 329.326 181.871, 327.373 183.078 C 323.604 185.408, 324.162 186.954, 328.783 186.985 C 331.673 187.004, 340.922 182.368, 341.619 180.550 C 342.221 178.982, 339.399 173, 338.058 173 C 337.569 173, 335.763 174.774, 334.046 176.942 M 339 189.171 C 335.975 190.270, 333.346 191.323, 333.157 191.511 C 332.968 191.699, 334.203 192.571, 335.901 193.449 C 338.945 195.023, 339.030 194.999, 341.965 191.773 C 344.429 189.063, 345.826 186.713, 344.750 187.087 C 344.613 187.135, 342.025 188.073, 339 189.171 M 172 192 C 174.576 195.617, 175.026 195.665, 177.878 192.630 L 180.104 190.260 177.802 189.644 C 176.536 189.305, 174.232 189.021, 172.682 189.014 L 169.864 189 172 192 M 304 193.709 C 300.534 194.984, 299 197.359, 299.032 201.405 C 299.068 206.117, 300.547 208.497, 304.331 209.936 C 312.620 213.087, 319.323 201.115, 312.537 195.278 C 309.980 193.079, 307.136 192.556, 304 193.709 M 198.455 196.455 C 196.808 198.101, 196 200.032, 196 202.320 C 196 210.685, 205.108 214.226, 210.411 207.923 C 215.484 201.894, 212.133 194, 204.500 194 C 202.021 194, 200.149 194.760, 198.455 196.455 M 351.285 231.484 C 347.356 233.182, 346.025 237.166, 348.128 240.931 C 349.992 244.268, 356.182 245.041, 359.223 242.316 C 361.227 240.521, 361.242 240.540, 360.559 244 C 358.784 252.984, 353.069 261.514, 344.976 267.257 C 342.552 268.978, 342.580 268.984, 346.308 267.534 C 358.408 262.829, 366.277 249.542, 363.148 239.099 C 360.922 231.671, 356.870 229.070, 351.285 231.484 M 155.080 233.145 C 152.154 236.285, 150.609 244.833, 152.020 250.073 C 153.726 256.412, 157.557 261.763, 162.740 265.050 C 168.258 268.550, 172.021 269.061, 166.982 265.627 C 161.934 262.186, 156.870 254.558, 155.351 248.108 C 153.628 240.788, 153.662 240.384, 155.829 242.345 C 159.374 245.553, 167.710 243.745, 168.118 239.679 C 168.839 232.515, 159.859 228.015, 155.080 233.145 M 184.175 234.669 C 184.599 236.870, 188.500 237.169, 188.500 235 C 188.500 234.175, 187.447 233.351, 186.161 233.169 C 184.347 232.912, 183.901 233.249, 184.175 234.669 M 324.625 233.798 C 323.744 235.223, 325.754 237.308, 327.399 236.677 C 329.659 235.810, 329.399 233, 327.059 233 C 325.991 233, 324.896 233.359, 324.625 233.798 M 192.674 241.117 C 188.592 244.482, 188.103 247.445, 191.309 249.398 C 192.735 250.267, 193.392 250.130, 194.419 248.750 C 196.014 246.605, 198 246.467, 198 248.500 C 198 249.325, 198.450 250, 199 250 C 199.550 250, 200 249.162, 200 248.139 C 200 246.695, 200.558 246.384, 202.488 246.753 C 205.455 247.320, 206.895 244.783, 204.941 242.429 C 203.983 241.274, 197.821 238, 196.606 238 C 196.523 238, 194.754 239.403, 192.674 241.117 M 311.395 240.430 C 306.934 242.372, 305.914 248, 310.024 248 C 311.046 248, 312.236 247.438, 312.670 246.750 C 313.194 245.919, 313.680 246.505, 314.120 248.500 C 314.746 251.334, 314.823 251.375, 315.508 249.250 C 316.353 246.628, 317.276 246.423, 318.983 248.479 C 319.894 249.577, 320.698 249.697, 322.105 248.944 C 325.149 247.315, 324.413 243.784, 320.502 241.250 C 316.505 238.661, 315.638 238.583, 311.395 240.430 M 252.250 244.031 C 248.973 245.348, 249.497 247.679, 253.356 248.952 C 258.749 250.732, 264.625 247.663, 261.964 244.456 C 260.627 242.845, 255.733 242.631, 252.250 244.031 M 248 284.927 C 248 286.656, 254.411 293, 256.158 293 C 256.544 293, 259.254 290.767, 262.180 288.038 L 267.500 283.076 257.750 283.038 C 248.776 283.003, 248 283.153, 248 284.927 M 235.569 287.326 C 234.272 288.274, 233.959 289.296, 234.471 290.910 C 235.354 293.691, 254.762 314, 256.537 314 C 258.495 314, 273.402 297.606, 276.109 292.475 C 278.178 288.554, 278.298 287.814, 277 286.987 C 276.175 286.461, 275.193 286.024, 274.818 286.015 C 274.442 286.007, 270.249 289.600, 265.500 294 C 260.751 298.400, 256.390 302, 255.810 302 C 255.230 302, 251.067 298.400, 246.560 294 C 242.052 289.600, 238.143 286, 237.873 286 C 237.603 286, 236.566 286.597, 235.569 287.326 M 216.615 289.088 C 215.155 290.237, 213.265 292.520, 212.416 294.163 C 209.796 299.230, 205.737 314.816, 206.375 317.360 C 207.035 319.989, 210.663 322.756, 215.127 324.036 L 218 324.860 218 320.012 C 218 317.345, 218.273 314.452, 218.607 313.582 C 219.483 311.300, 222 311.634, 222 314.032 C 222 316.971, 224.493 322.493, 226.912 324.912 C 230.535 328.535, 240.864 327.081, 248.098 321.930 L 251.063 319.819 242.107 310.450 C 237.180 305.297, 230.622 297.913, 227.532 294.041 C 224.443 290.168, 221.320 287, 220.592 287 C 219.865 287, 218.075 287.940, 216.615 289.088 M 282.175 296.250 C 278.344 301.337, 272.451 308.617, 269.080 312.426 C 265.709 316.236, 263.095 319.836, 263.270 320.426 C 263.950 322.710, 273.497 326.437, 279.674 326.830 C 285.323 327.190, 286.103 326.992, 288.274 324.649 C 290.578 322.163, 293 316.006, 293 312.634 C 293 311.735, 293.434 311, 293.965 311 C 295.530 311, 297 314.601, 297 318.434 C 297 321.114, 297.420 322, 298.688 322 C 300.916 322, 306.868 317.916, 307.505 315.951 C 307.998 314.431, 303.339 300.490, 300.510 295.019 C 298.664 291.449, 293.384 287, 290.993 287 C 289.825 287, 286.567 290.417, 282.175 296.250 M 277 322.084 L 273.500 325.114 276.573 323.623 C 278.263 322.803, 280.230 321.427, 280.945 320.566 C 283.123 317.942, 280.713 318.869, 277 322.084 M 235 322.500 C 236.292 323.875, 238.033 325, 238.869 325 C 239.730 325, 238.921 323.917, 237 322.500 C 235.136 321.125, 233.395 320, 233.131 320 C 232.867 320, 233.708 321.125, 235 322.500 M 301.250 327.780 C 298.913 328.678, 297 329.978, 297 330.669 C 297 334.271, 301.771 343.511, 307.757 351.500 C 314.229 360.139, 314.671 360.512, 318.759 360.808 C 324.374 361.214, 324.792 359.830, 321.460 351.867 C 317.676 342.825, 308.004 325.986, 306.645 326.074 C 306.015 326.114, 303.587 326.882, 301.250 327.780 M 208.776 330.750 C 206.597 333.235, 204.353 337.886, 200.423 348.062 C 197.082 356.711, 196.115 362, 197.873 362 C 199.816 362, 213.347 346.451, 215.583 341.650 C 218.978 334.358, 218.795 331.473, 214.851 330.098 C 210.756 328.670, 210.583 328.689, 208.776 330.750 M 286.885 335.250 C 286.571 338.661, 287.343 340.709, 289.762 342.880 C 292.792 345.600, 293.981 344.238, 291.575 340.803 C 290.709 339.567, 290 337.530, 290 336.277 C 290 333.910, 287.097 332.952, 286.885 335.250 M 224.051 341.136 C 222.998 343.487, 222.378 345.803, 222.674 346.281 C 223.566 347.726, 228 342.818, 228 340.385 C 228 336.366, 226.017 336.743, 224.051 341.136 M 241.696 341.978 C 238.631 343.921, 237 345.658, 237 346.978 C 237 349.498, 237.722 349.502, 241.500 347 C 243.150 345.907, 245.253 345.010, 246.173 345.007 C 247.093 345.003, 249.919 347.427, 252.453 350.394 L 257.061 355.787 262.683 349.894 C 265.775 346.652, 268.756 344, 269.308 344 C 269.860 344, 271.786 345.125, 273.589 346.500 C 275.392 347.875, 277.098 349, 277.381 349 C 278.577 349, 275.697 343.064, 273.500 341 C 270.306 338, 267.232 338.854, 261.519 344.327 L 257.045 348.614 252.310 343.807 C 249.706 341.163, 247.309 339, 246.983 339 C 246.658 339, 244.278 340.340, 241.696 341.978 M 285.590 358.315 C 280.689 361.717, 272.267 368.663, 266.873 373.750 C 261.479 378.837, 256.829 383, 256.538 383 C 256.248 383, 251.387 378.832, 245.738 373.738 C 235.261 364.291, 225.167 356.186, 221.405 354.201 C 219.783 353.345, 218.822 353.436, 217.155 354.604 C 214.281 356.617, 214.421 357.236, 218.250 359.435 C 220.037 360.461, 225.002 363.551, 229.282 366.301 L 237.064 371.301 233.782 374.131 C 228.334 378.830, 221.872 382.696, 214.701 385.548 C 206.976 388.620, 203.159 391.975, 200.027 398.444 C 196.642 405.436, 197.388 407.236, 204.357 408.890 C 209.218 410.044, 211.364 410.064, 216.967 409.006 C 220.682 408.305, 225.159 407.943, 226.918 408.201 C 229.714 408.612, 230.186 408.346, 230.675 406.085 C 230.983 404.663, 232.644 397.875, 234.367 391 C 237.217 379.629, 237.717 378.469, 239.897 378.161 C 242.283 377.824, 242.291 377.856, 241.594 384.661 C 241.208 388.423, 240.009 395.468, 238.929 400.317 C 237.849 405.167, 237.206 409.524, 237.500 410 C 238.686 411.918, 249.702 413.247, 259.500 412.654 C 268.412 412.115, 279.297 410.036, 280.733 408.600 C 281.022 408.311, 280.105 404.960, 278.694 401.154 C 275.986 393.849, 272.587 379.080, 273.421 378.246 C 274.347 377.319, 276.882 378.890, 278.538 381.417 C 279.448 382.806, 281.954 388.945, 284.108 395.059 C 289.872 411.422, 288.930 410.384, 297.367 409.671 C 301.299 409.338, 307.212 408.233, 310.508 407.214 C 315.845 405.565, 316.470 405.097, 316.229 402.931 C 316.080 401.594, 314.430 398.025, 312.564 395 C 309.298 389.707, 308.913 389.432, 302.335 387.703 C 298.576 386.715, 293.700 384.727, 291.500 383.285 C 286.059 379.719, 277.124 372.648, 277.056 371.854 C 277.025 371.498, 280.262 369.171, 284.250 366.683 C 288.238 364.194, 293.291 360.607, 295.481 358.710 C 298.956 355.700, 299.290 355.054, 298.109 353.631 C 297.364 352.734, 296.248 352.029, 295.628 352.065 C 295.007 352.100, 290.490 354.913, 285.590 358.315 M 220.571 416.571 C 219.707 417.436, 218.996 418.448, 218.991 418.821 C 218.985 419.195, 218.085 423.931, 216.991 429.347 C 215.896 434.762, 215 440.264, 215 441.574 C 215 444.566, 218.570 446.991, 224.643 448.126 C 232.677 449.627, 233.457 449.009, 237.870 437.651 C 241.479 428.362, 243.980 420.643, 243.994 418.750 C 243.997 418.337, 241.863 417.984, 239.250 417.965 C 236.637 417.945, 233.375 417.286, 232 416.500 C 228.648 414.584, 222.521 414.622, 220.571 416.571 M 275.500 417.537 C 272.424 418.446, 271.578 419.156, 271.835 420.610 C 272.020 421.649, 275.663 428.350, 279.932 435.500 L 287.694 448.500 291.795 448.418 C 296.611 448.321, 304 443.935, 304 441.173 C 304 438.986, 298.803 423.410, 296.793 419.575 C 295.416 416.946, 294.958 416.800, 287.422 416.583 C 283.065 416.458, 277.700 416.887, 275.500 417.537" stroke="none" fill="black" fill-rule="evenodd"/>
</svg>