<?xml version="1.0" standalone="no"?>
<!DOCTYPE svg PUBLIC "-//W3C//DTD SVG 20010904//EN"
 "http://www.w3.org/TR/2001/REC-SVG-20010904/DTD/svg10.dtd">
<svg version="1.0" xmlns="http://www.w3.org/2000/svg"
 width="1178.000000pt" height="1036.000000pt" viewBox="0 0 1178.000000 1036.000000"
 preserveAspectRatio="xMidYMid meet">

<g transform="translate(0.000000,1036.000000) scale(0.100000,-0.100000)"
fill="#000000" stroke="none">
<path d="M0 7852 l0 -2507 38 -13 c20 -8 65 -19 100 -26 35 -6 66 -17 70 -23
4 -7 16 -12 27 -13 11 0 50 -4 87 -8 54 -6 70 -12 87 -33 15 -20 35 -28 93
-39 40 -7 90 -24 111 -37 21 -13 51 -24 65 -23 15 0 47 2 72 3 l45 2 3 -45 c4
-45 -15 -172 -28 -199 -6 -11 -9 -9 -14 7 -8 24 -32 30 -39 10 -3 -10 -15 -7
-45 9 -32 18 -57 23 -114 23 -54 0 -84 5 -113 20 -22 11 -41 20 -42 20 -2 0
-3 -11 -3 -25 0 -22 -3 -24 -19 -15 -11 5 -33 10 -50 10 -16 0 -33 4 -36 10
-10 17 -68 11 -99 -9 -26 -17 -33 -18 -60 -7 -17 7 -46 13 -64 14 -17 0 -41 4
-52 7 -18 6 -20 2 -20 -49 0 -31 2 -56 4 -56 3 0 17 5 31 10 39 15 72 2 94
-36 l20 -34 114 0 c109 0 115 -1 162 -31 27 -17 51 -27 53 -21 2 6 13 5 30 -4
15 -8 33 -14 40 -14 6 0 12 -4 12 -9 0 -4 35 -8 77 -9 46 0 79 -5 81 -11 2 -6
12 -11 21 -11 21 0 61 -32 61 -49 0 -6 4 -19 10 -29 13 -22 39 -96 51 -145 12
-49 47 -124 74 -162 12 -16 25 -40 29 -51 4 -12 17 -33 29 -46 69 -77 91 -99
153 -156 105 -96 195 -162 219 -162 18 0 84 -45 101 -68 7 -10 12 -29 11 -42
0 -24 4 -81 23 -265 11 -115 34 -206 80 -321 42 -102 111 -203 163 -234 14 -8
49 -31 79 -51 89 -61 138 -84 258 -123 146 -48 293 -82 395 -90 118 -10 140
-20 159 -67 9 -22 16 -46 16 -54 0 -57 106 -190 200 -250 106 -68 108 -77 32
-141 -112 -93 -205 -191 -239 -252 -34 -60 -36 -69 -36 -155 0 -237 38 -630
73 -757 7 -25 16 -61 21 -80 4 -19 17 -69 28 -110 11 -41 29 -109 40 -152 11
-42 32 -100 47 -130 25 -47 28 -64 28 -153 1 -80 -3 -111 -21 -155 -21 -54
-73 -219 -73 -233 0 -4 13 -7 29 -7 26 0 31 5 44 47 17 53 75 223 112 323 13
36 42 115 64 175 22 61 60 159 85 219 25 61 42 114 39 119 -8 14 -17 0 -72
-113 -83 -168 -119 -234 -129 -238 -25 -8 -24 292 2 483 9 66 23 181 31 255
13 124 41 283 65 370 5 19 14 54 20 77 13 52 39 69 74 51 22 -12 131 -109 239
-213 103 -99 211 -226 344 -405 146 -197 177 -239 206 -287 18 -29 60 -97 93
-150 75 -119 173 -309 279 -541 l79 -172 161 0 161 0 24 41 c12 23 50 71 83
108 33 36 70 83 83 103 13 20 53 65 90 100 36 35 89 92 117 128 29 36 115 136
192 223 146 164 260 305 321 395 30 45 37 66 44 135 5 45 14 98 19 117 5 19
12 60 16 90 7 56 75 361 100 447 67 232 173 529 225 628 18 33 46 87 63 120
17 33 34 62 37 65 3 3 41 55 84 115 44 61 100 134 125 164 79 92 232 241 265
258 17 8 39 22 48 30 20 18 48 11 48 -13 0 -20 -46 -105 -174 -319 -56 -93
-135 -228 -176 -300 -40 -71 -82 -136 -92 -143 -36 -26 -21 -35 50 -29 37 3
79 10 92 16 40 16 302 34 333 22 53 -20 73 -102 29 -115 -28 -9 -220 -26 -284
-26 -55 0 -59 -2 -56 -21 3 -25 63 -46 113 -41 17 2 100 6 187 8 l156 4 21
-36 c11 -19 24 -52 27 -73 l6 -39 -73 -12 c-41 -6 -90 -16 -110 -21 -20 -5
-63 -9 -97 -9 -56 0 -72 -8 -72 -36 0 -13 78 -18 192 -11 266 16 274 15 369
-77 75 -71 156 -195 136 -208 -26 -17 -58 -6 -131 43 -92 61 -122 67 -207 40
-160 -51 -188 -69 -224 -149 -15 -31 -36 -74 -46 -96 -35 -67 -87 -209 -108
-289 -26 -99 -56 -158 -128 -253 -32 -42 -71 -94 -87 -115 -15 -22 -52 -66
-82 -98 -54 -58 -109 -162 -135 -253 -7 -23 -16 -47 -19 -53 -4 -5 -20 -46
-35 -90 -36 -105 -74 -204 -90 -235 -7 -14 -20 -50 -30 -80 -9 -30 -25 -66
-34 -80 -10 -14 -21 -37 -25 -52 l-6 -28 65 0 c60 0 80 9 55 25 -26 16 6 141
90 350 46 115 59 135 91 135 26 0 27 2 39 98 6 53 16 115 22 136 13 54 55 103
108 128 38 18 56 20 127 14 45 -3 97 -13 116 -22 68 -33 131 -162 120 -249 -7
-58 12 -60 27 -4 14 50 5 128 -20 186 -21 48 -18 68 24 150 15 31 22 54 16 58
-6 3 -10 2 -10 -3 0 -14 -70 -100 -86 -106 -25 -9 -78 25 -134 86 l-52 58 36
67 c49 92 73 146 101 223 154 421 168 443 303 474 68 16 86 17 112 6 38 -16
46 -44 25 -101 -9 -24 -22 -69 -30 -99 -20 -79 -143 -356 -231 -522 -14 -26
-24 -55 -21 -65 2 -12 16 7 40 57 20 41 48 95 62 120 25 45 82 166 169 360 61
136 61 135 77 135 24 0 45 -92 73 -320 14 -121 31 -242 36 -268 6 -27 10 -83
10 -125 0 -125 -29 -482 -46 -557 -9 -38 -24 -119 -35 -180 -10 -60 -25 -135
-34 -165 -8 -30 -15 -61 -15 -67 0 -10 129 -13 611 -13 l611 0 -6 23 c-4 12
-13 56 -21 96 -13 68 -90 368 -132 514 -23 82 -21 101 27 207 92 208 121 261
138 258 18 -3 49 -58 102 -183 18 -44 56 -123 84 -175 27 -52 69 -135 93 -185
24 -49 50 -101 59 -115 8 -14 22 -41 31 -60 8 -19 28 -62 43 -95 15 -33 33
-78 40 -100 7 -22 28 -73 48 -112 35 -72 36 -73 74 -73 43 0 44 2 18 50 -23
41 -41 80 -82 175 -16 39 -34 78 -39 87 -5 10 -9 25 -9 34 0 9 -13 40 -29 68
-16 28 -43 93 -61 145 -18 52 -45 120 -61 152 -16 31 -29 60 -29 64 0 7 -53
123 -99 215 -16 30 -34 72 -40 93 -7 20 -25 61 -40 90 -25 49 -31 97 -10 97 5
0 9 8 9 18 1 16 21 78 49 147 96 237 121 319 121 388 0 45 -6 67 -26 100 -29
46 -125 159 -164 193 -34 30 -17 47 73 74 120 36 246 132 310 236 25 41 33 45
152 84 22 7 51 21 65 30 14 9 45 30 69 46 52 34 171 147 171 162 0 6 16 16 35
23 19 7 35 18 35 25 0 16 34 23 56 11 39 -21 55 -40 42 -50 -9 -6 -7 -7 5 -3
10 3 23 6 28 6 5 0 9 9 9 19 0 23 46 37 82 25 13 -4 57 -9 98 -11 110 -5 169
-12 188 -21 18 -10 185 8 198 21 15 14 46 7 51 -13 6 -22 19 -26 26 -7 3 9 8
9 21 -2 13 -11 20 -11 28 -3 18 18 39 14 66 -10 21 -20 34 -23 113 -23 78 0
89 -2 89 -17 0 -15 10 -18 68 -18 37 0 95 -4 129 -9 34 -5 76 -6 95 -2 37 9
144 -3 229 -25 58 -15 119 -10 119 10 0 6 7 2 15 -8 8 -10 12 -22 10 -27 -6
-9 80 -12 300 -11 286 1 315 2 315 12 0 6 18 10 40 10 22 0 40 -4 40 -10 0 -5
5 -10 10 -10 7 0 10 1295 10 3865 l0 3865 -5890 0 -5890 0 0 -2508z m3427
1394 c147 -36 395 -140 498 -210 89 -60 239 -222 286 -310 32 -58 58 -132 63
-177 5 -45 2 -65 -22 -124 -28 -68 -31 -71 -108 -117 -43 -27 -88 -48 -99 -48
-11 0 -52 8 -90 17 -89 21 -362 29 -460 13 -95 -15 -198 -41 -209 -51 -6 -5
-18 -9 -28 -9 -28 0 -149 -51 -193 -82 -56 -39 -113 -77 -160 -107 -22 -14
-74 -59 -116 -98 -51 -49 -84 -73 -100 -73 -51 0 -69 35 -69 134 0 68 5 87 43
174 26 58 68 130 106 180 35 46 61 90 59 99 -3 16 -20 19 -143 24 -141 6 -170
12 -214 47 -19 15 -25 31 -28 73 -4 49 -1 59 34 114 64 98 229 220 352 263
118 40 249 79 291 87 42 7 110 35 110 45 0 18 -31 28 -103 33 -78 5 -117 23
-117 53 0 19 11 23 99 42 104 22 244 26 318 8z m3298 -210 c152 -17 428 -82
575 -136 104 -38 229 -97 253 -118 45 -40 7 -39 -163 4 -52 13 -167 33 -255
44 -88 12 -168 23 -178 26 -22 7 -333 7 -344 1 -5 -3 -50 -8 -102 -12 -174
-12 -316 -25 -371 -34 -30 -4 -100 -14 -155 -21 -127 -15 -420 -113 -635 -212
-41 -19 -86 -40 -100 -46 -14 -7 -32 -16 -40 -22 -8 -5 -46 -24 -85 -41 -95
-42 -186 -86 -208 -101 -14 -11 -19 -10 -27 2 -5 8 -10 25 -10 37 0 37 -4 37
-203 42 -53 1 -69 5 -74 18 -4 11 1 22 17 32 13 9 44 33 69 54 54 44 361 199
531 267 30 12 66 26 80 32 141 58 296 101 475 133 50 9 107 20 128 26 40 11
117 16 405 28 92 3 192 8 222 9 30 1 118 -4 195 -12z m-2771 -795 c23 -19 19
-42 -9 -70 -32 -29 -42 -68 -24 -86 8 -7 66 -35 129 -63 69 -31 117 -57 120
-68 13 -36 -16 -88 -103 -188 -119 -136 -364 -493 -460 -669 -69 -128 -82
-152 -104 -188 -46 -75 -203 -382 -203 -396 0 -5 -19 -30 -42 -57 -34 -38 -50
-48 -76 -48 -79 -2 -112 80 -162 407 -13 88 -25 134 -35 141 -17 13 -50 7
-125 -20 -75 -28 -130 -3 -130 59 0 21 28 102 57 164 14 30 33 72 44 95 10 23
30 59 43 81 14 22 30 59 37 83 15 54 1 71 -75 95 -58 19 -111 67 -122 111 -10
40 16 138 53 198 47 79 231 268 261 268 12 0 39 10 60 23 94 58 272 113 407
126 61 6 126 13 145 15 79 9 299 -1 314 -13z m226 -548 c4 -46 11 -68 29 -87
l23 -25 -32 -143 c-18 -79 -44 -195 -57 -258 -29 -132 -29 -134 -78 -335 -20
-82 -48 -199 -62 -260 -39 -163 -70 -226 -108 -212 -16 7 -28 32 -82 177 -46
122 -83 203 -97 212 -20 13 -33 9 -78 -27 -23 -20 -61 -50 -83 -68 -22 -18
-54 -47 -71 -65 -39 -41 -74 -41 -88 -1 -9 27 -4 41 53 142 11 21 21 42 21 47
0 6 11 33 25 62 14 28 25 57 25 64 0 6 7 15 15 18 9 3 24 23 33 43 17 36 32
60 137 223 136 210 182 275 248 351 40 46 88 104 107 128 34 45 87 83 105 78
6 -2 12 -31 15 -64z m1635 -121 c18 -74 39 -426 28 -447 -5 -8 -35 -31 -68
-50 -59 -36 -93 -39 -81 -9 3 9 18 71 32 138 21 99 27 158 31 331 l6 210 18
-55 c11 -30 26 -83 34 -118z m1916 -673 c-6 -28 -11 -89 -11 -136 0 -74 3 -92
23 -120 12 -18 27 -33 32 -33 6 0 3 -5 -5 -10 -8 -5 -33 -10 -55 -10 -25 0
-63 -11 -95 -28 -50 -25 -55 -31 -54 -59 2 -26 -9 -44 -60 -97 -64 -68 -74
-88 -132 -260 -55 -165 -67 -242 -61 -396 6 -143 26 -228 62 -267 11 -11 33
-34 48 -51 19 -21 50 -38 94 -52 70 -22 94 -24 167 -14 92 13 175 119 218 279
38 142 33 361 -9 485 -24 68 -41 157 -33 170 20 33 112 -52 172 -161 62 -111
88 -205 100 -371 9 -126 8 -164 -7 -280 -27 -197 -28 -219 -16 -231 35 -35 67
94 82 323 7 96 16 181 22 188 5 7 18 10 28 7 25 -8 59 3 59 19 0 7 -21 24 -47
38 -39 19 -52 33 -67 71 -12 29 -16 51 -10 56 7 8 35 13 117 20 4 1 7 7 7 15
0 17 -43 46 -69 46 -11 0 -23 5 -26 10 -4 6 -23 21 -44 34 -26 17 -49 47 -81
107 -47 87 -133 185 -187 213 -18 9 -48 27 -67 40 -19 13 -62 29 -95 37 -69
15 -79 34 -23 42 41 7 82 0 82 -14 0 -5 8 -9 19 -9 10 0 24 -7 31 -15 16 -19
49 -19 56 0 8 19 -22 65 -41 65 -20 0 -19 26 1 34 9 3 28 6 43 6 14 0 59 9
100 20 81 23 80 23 116 -40 19 -35 97 -107 126 -118 21 -8 89 -3 137 10 16 4
108 -61 123 -88 9 -17 8 -32 -4 -70 -9 -27 -18 -69 -22 -94 -4 -25 -13 -65
-20 -90 -17 -54 -78 -365 -100 -509 -33 -210 -30 -359 10 -556 14 -66 30 -180
41 -290 3 -27 9 -66 14 -85 5 -19 12 -100 16 -180 6 -142 6 -148 -26 -275 -31
-121 -62 -201 -111 -285 -37 -63 -134 -192 -147 -197 -7 -3 -19 -17 -26 -30
-14 -27 -57 -65 -281 -246 -138 -112 -228 -177 -244 -177 -4 0 -26 -13 -47
-28 -121 -87 -404 -211 -576 -251 -110 -26 -140 -30 -229 -25 -56 2 -106 7
-110 10 -19 11 -7 59 29 121 61 106 71 127 72 151 1 50 -46 101 -91 102 -31 0
-117 -55 -170 -109 -157 -158 -218 -211 -241 -211 -13 0 -56 9 -94 20 -38 12
-87 26 -109 31 -103 26 -347 112 -385 134 -14 9 -54 31 -90 51 -102 54 -239
139 -305 187 -33 24 -74 51 -90 59 -17 9 -39 25 -49 37 -10 11 -42 35 -70 53
-49 30 -107 83 -284 256 -46 45 -91 82 -99 82 -8 0 -31 -14 -51 -31 -50 -44
-86 -57 -183 -65 -94 -7 -164 3 -271 42 -91 32 -142 65 -211 138 -152 160
-247 364 -247 531 0 86 25 236 46 276 45 88 130 155 185 147 17 -2 27 -14 37
-43 7 -22 41 -95 74 -163 34 -67 59 -124 57 -126 -2 -2 -24 0 -49 6 -92 20
-127 21 -134 3 -8 -23 -1 -31 31 -40 61 -15 187 -86 196 -110 4 -9 -9 -21 -37
-35 -24 -11 -51 -29 -60 -39 -24 -26 -23 -108 2 -162 24 -55 88 -129 110 -129
9 0 26 -7 36 -15 11 -8 34 -15 51 -15 54 0 77 44 28 56 -90 23 -183 115 -183
182 0 48 22 62 97 62 44 0 74 6 94 17 28 17 32 17 92 -4 131 -47 238 -43 302
11 38 32 40 37 40 88 -1 41 -8 66 -30 103 -149 257 -217 477 -231 745 -5 114
4 301 21 433 4 32 31 57 97 92 26 14 62 38 80 53 18 16 56 45 83 66 28 20 125
110 217 198 172 165 205 194 214 185 3 -3 14 -20 23 -38 25 -47 60 -53 119
-23 53 28 74 50 140 149 43 65 101 171 102 187 0 3 16 41 35 82 19 42 35 81
35 86 0 21 81 96 133 124 76 41 87 34 87 -56 0 -40 -5 -89 -10 -108 -6 -19
-13 -74 -17 -122 -9 -127 13 -156 136 -182 37 -8 118 13 197 50 38 18 82 36
96 39 24 6 26 4 32 -39 9 -60 44 -89 95 -80 53 9 150 56 224 108 72 50 75 50
96 -21 6 -24 15 -43 20 -43 4 0 19 -9 32 -21 51 -44 182 -1 330 108 41 30 85
65 100 79 34 32 54 30 69 -6 26 -63 84 -77 158 -37 63 34 207 180 276 282 l61
90 3 -38 c2 -21 -1 -61 -7 -88z m-297 -1085 c9 -23 -2 -54 -19 -54 -17 0 -25
33 -13 54 12 21 24 21 32 0z m146 -187 c13 -24 13 -30 -4 -62 -20 -37 -45 -45
-66 -20 -24 28 14 122 44 112 6 -2 18 -16 26 -30z m-2254 -2280 c12 -6 48 -26
80 -43 32 -18 83 -48 113 -68 29 -20 77 -43 106 -51 29 -9 59 -22 65 -30 15
-18 154 -72 222 -86 63 -13 227 -76 247 -94 18 -17 2 -59 -45 -121 -18 -23
-37 -51 -43 -62 -6 -11 -18 -28 -27 -36 -8 -9 -31 -46 -51 -84 -29 -55 -40
-68 -65 -74 -32 -6 -245 41 -305 68 -17 8 -36 14 -42 14 -6 0 -54 20 -107 45
-52 25 -101 45 -108 45 -7 0 -31 13 -53 29 l-41 29 2 266 c1 287 0 284 52 253z
m-204 -233 c42 -4 72 -12 80 -22 16 -19 14 -198 -3 -218 -15 -18 -50 -18 -75
1 -22 16 -50 19 -58 6 -3 -5 11 -17 30 -26 20 -10 55 -31 78 -49 36 -27 104
-60 316 -152 30 -13 73 -28 95 -33 56 -13 222 -69 273 -92 36 -16 42 -23 42
-50 0 -17 -5 -40 -12 -52 -11 -21 -32 -76 -84 -222 -14 -38 -41 -124 -60 -190
-51 -179 -61 -202 -88 -209 -27 -7 -223 58 -331 109 -38 18 -99 46 -135 63
-36 17 -81 41 -100 54 -19 13 -74 47 -122 76 -48 29 -99 67 -113 84 -27 32
-27 33 -22 153 5 126 28 225 51 225 8 0 19 6 25 14 10 11 2 46 -35 163 -63
196 -62 267 6 328 34 31 101 55 140 50 19 -2 65 -7 102 -11z m1507 -208 c6 -7
9 -28 7 -47 -3 -19 -5 -79 -5 -135 -1 -63 -6 -106 -13 -117 -9 -12 -44 -22
-117 -33 -92 -13 -106 -14 -119 -1 -13 13 -11 22 18 74 18 32 53 96 78 143 25
47 54 95 65 108 23 25 68 29 86 8z m174 -61 c26 -8 60 -23 75 -33 15 -11 50
-31 77 -45 94 -47 131 -106 120 -192 -9 -79 -70 -344 -86 -374 -5 -11 -17 2
-44 45 -21 32 -58 82 -84 109 -35 38 -53 68 -71 123 -28 86 -25 95 41 130 58
30 76 49 62 63 -8 8 -27 3 -68 -16 -126 -57 -140 -48 -127 84 9 87 22 121 46
121 6 0 33 -7 59 -15z m-1746 -856 c38 -17 118 -55 178 -85 61 -29 121 -56
135 -60 14 -3 43 -16 65 -29 36 -21 102 -43 177 -59 45 -10 50 -33 29 -133
-52 -237 -62 -278 -76 -300 -17 -25 -44 -30 -63 -11 -20 20 -14 -1 15 -49 32
-54 32 -95 1 -150 -29 -51 -133 -163 -150 -163 -8 0 -41 59 -76 133 -61 130
-80 176 -167 388 -24 59 -52 124 -63 146 -21 40 -82 214 -82 232 0 22 29 10
59 -24 17 -20 31 -39 31 -43 0 -14 110 -126 117 -119 3 4 -1 15 -10 25 -10 10
-17 22 -17 26 0 10 -49 78 -105 146 -25 30 -52 69 -60 87 -14 31 -20 73 -10
73 2 0 35 -14 72 -31z"/>
<path d="M3900 7898 c-87 -37 -220 -110 -273 -150 -92 -69 -163 -135 -155
-143 9 -9 78 32 96 57 7 10 17 18 22 18 6 0 154 85 260 150 8 5 34 18 58 29
63 30 56 66 -8 39z"/>
<path d="M5795 6511 c-3 -6 -17 -11 -30 -11 -22 0 -43 -16 -33 -25 2 -2 26 -1
53 3 34 5 50 12 50 22 0 18 -30 26 -40 11z"/>
<path d="M5647 6465 c-51 -19 -182 -129 -197 -165 -14 -33 -8 -60 13 -60 15 0
39 22 120 109 27 28 52 51 57 51 4 0 24 15 44 34 30 27 34 35 21 40 -9 3 -17
6 -18 5 -1 0 -19 -7 -40 -14z"/>
<path d="M5724 6387 c-39 -18 -83 -41 -97 -50 -15 -9 -31 -17 -37 -17 -5 0
-10 -3 -10 -7 0 -5 -14 -17 -30 -28 -16 -11 -30 -25 -30 -31 0 -7 -11 -15 -24
-18 -13 -3 -26 -16 -30 -28 -3 -13 -34 -57 -68 -99 -35 -41 -80 -102 -102
-135 -25 -38 -62 -77 -106 -109 -70 -52 -73 -65 -12 -65 25 0 32 -4 32 -20 0
-26 -56 -89 -86 -96 -21 -5 -25 -12 -24 -41 0 -5 17 -8 37 -8 l37 0 0 -160 c1
-145 3 -164 23 -205 22 -45 135 -170 153 -170 22 0 8 33 -38 89 -67 84 -82
132 -82 268 0 219 54 386 177 551 49 64 129 142 147 142 10 0 7 -55 -10 -152
-31 -176 -2 -369 73 -501 77 -135 139 -185 255 -207 75 -15 137 17 240 120 76
76 82 85 99 152 27 102 25 236 -6 394 -28 143 -35 167 -79 274 -59 145 -104
177 -261 185 -62 4 -78 1 -141 -28z m-24 -606 c0 -11 -5 -23 -11 -27 -15 -9
-33 12 -26 30 9 23 37 20 37 -3z m150 -218 c0 -31 -29 -42 -46 -18 -18 24 -17
30 2 50 21 20 44 3 44 -32z"/>
<path d="M5790 5061 c0 -4 -11 -6 -25 -3 -18 3 -25 0 -25 -11 0 -12 11 -15 46
-15 36 0 44 3 40 15 -3 8 -6 17 -6 19 0 2 -7 4 -15 4 -8 0 -15 -4 -15 -9z"/>
<path d="M7242 4912 c-18 -12 -4 -41 24 -48 35 -9 74 -64 74 -104 0 -19 -9
-53 -21 -77 -11 -23 -19 -51 -17 -60 4 -22 38 -24 48 -3 29 58 43 102 47 148
l6 53 -52 49 c-49 49 -80 60 -109 42z"/>
<path d="M7060 4101 c-8 -6 -29 -11 -46 -11 -41 0 -194 -50 -240 -78 -13 -8
-75 -52 -153 -109 -74 -54 -141 -139 -141 -180 0 -48 20 -64 97 -77 98 -17
522 4 558 28 13 9 41 49 61 88 32 65 37 83 40 168 l5 95 -34 37 c-27 30 -42
38 -83 43 -28 3 -56 1 -64 -4z"/>
<path d="M6870 3437 c0 -18 21 -37 41 -37 18 0 33 26 23 41 -8 14 -64 11 -64
-4z"/>
<path d="M5220 1614 c0 -14 66 -95 139 -172 52 -54 71 -70 66 -52 -4 14 -17
34 -29 46 -12 12 -41 47 -66 78 -43 54 -110 115 -110 100z"/>
<path d="M88 4993 c7 -3 16 -2 19 1 4 3 -2 6 -13 5 -11 0 -14 -3 -6 -6z"/>
<path d="M9963 2753 c9 -2 23 -2 30 0 6 3 -1 5 -18 5 -16 0 -22 -2 -12 -5z"/>
<path d="M6210 475 c0 -8 33 -36 72 -62 59 -39 79 -59 106 -107 29 -52 67
-111 145 -222 12 -18 27 -39 32 -48 7 -11 30 -18 70 -22 58 -5 61 -4 96 29 73
68 108 233 63 293 -33 45 -48 50 -100 36 -58 -16 -74 -5 -74 50 0 46 -2 46
-100 9 -80 -31 -174 -24 -222 17 -8 6 -31 18 -51 27 -33 13 -37 13 -37 0z"/>
</g>
</svg>
